<svg width="26" height="26" viewBox="0 0 26 26" fill="none" xmlns="http://www.w3.org/2000/svg">
<path d="M23.7143 14.7857H14.7857V23.7143C14.7857 24.1879 14.5976 24.6421 14.2627 24.977C13.9278 25.3119 13.4736 25.5 13 25.5C12.5264 25.5 12.0722 25.3119 11.7373 24.977C11.4024 24.6421 11.2143 24.1879 11.2143 23.7143V14.7857H2.28571C1.81211 14.7857 1.35791 14.5976 1.02302 14.2627C0.688138 13.9278 0.5 13.4736 0.5 13C0.5 12.5264 0.688138 12.0722 1.02302 11.7373C1.35791 11.4024 1.81211 11.2143 2.28571 11.2143H11.2143V2.28571C11.2143 1.81211 11.4024 1.35791 11.7373 1.02302C12.0722 0.688137 12.5264 0.5 13 0.5C13.4736 0.5 13.9278 0.688137 14.2627 1.02302C14.5976 1.35791 14.7857 1.81211 14.7857 2.28571V11.2143H23.7143C24.1879 11.2143 24.6421 11.4024 24.977 11.7373C25.3119 12.0722 25.5 12.5264 25.5 13C25.5 13.4736 25.3119 13.9278 24.977 14.2627C24.6421 14.5976 24.1879 14.7857 23.7143 14.7857V14.7857Z" fill="#4494f1"/>
</svg>
